<svg xmlns="http://www.w3.org/2000/svg" xmlns:xlink="http://www.w3.org/1999/xlink" width="40" zoomAndPan="magnify" viewBox="0 0 30 30.000001" height="40" preserveAspectRatio="xMidYMid meet" version="1.0"><defs><clipPath id="8db49c7df8"><path d="M 0.484375 5.363281 L 29.515625 5.363281 L 29.515625 22.78125 L 0.484375 22.78125 Z M 0.484375 5.363281 " clip-rule="nonzero"/></clipPath></defs><g clip-path="url(#8db49c7df8)"><path fill="#38bdf8" d="M 15 5.375 C 11.125 5.375 8.714844 7.304688 7.742188 11.183594 C 9.195312 9.25 10.890625 8.527344 12.824219 9.003906 C 13.925781 9.28125 14.722656 10.078125 15.59375 10.964844 C 17.019531 12.417969 18.628906 14.085938 22.257812 14.085938 C 26.136719 14.085938 28.546875 12.15625 29.519531 8.277344 C 28.066406 10.210938 26.367188 10.9375 24.4375 10.457031 C 23.332031 10.179688 22.550781 9.382812 21.664062 8.496094 C 20.242188 7.046875 18.628906 5.375 15 5.375 Z M 7.742188 14.085938 C 3.867188 14.085938 1.457031 16.015625 0.484375 19.894531 C 1.933594 17.960938 3.632812 17.238281 5.5625 17.714844 C 6.667969 17.992188 7.453125 18.789062 8.335938 19.675781 C 9.757812 21.128906 11.371094 22.796875 15 22.796875 C 18.875 22.796875 21.285156 20.867188 22.257812 16.988281 C 20.808594 18.921875 19.109375 19.644531 17.179688 19.167969 C 16.074219 18.890625 15.289062 18.09375 14.40625 17.207031 C 12.984375 15.753906 11.371094 14.085938 7.742188 14.085938 Z M 7.742188 14.085938 " fill-opacity="1" fill-rule="nonzero"/></g></svg>